<?xml version="1.0" encoding="utf-8"?>
<!-- Generator: Adobe Illustrator 22.0.1, SVG Export Plug-In . SVG Version: 6.00 Build 0)  -->
<svg version="1.1" id="Layer_1" xmlns="http://www.w3.org/2000/svg" xmlns:xlink="http://www.w3.org/1999/xlink" x="0px" y="0px"
	 viewBox="0 0 1600 1080" style="enable-background:new 0 0 1600 1080;" xml:space="preserve">
<style type="text/css">
	.st0{fill:#F48473;}
	.st1{fill:#D55B55;}
</style>
<g>
	<g>
		<path class="st0" d="M710.1,549.9c0,4.5-2.7,7-7.3,7c-4,0-6.4-1.6-7.6-4l4.8-3.1c0.5,0.8,1,1.6,2.1,1.6c1,0,1.6-0.6,1.6-2v-26.6
			h6.4V549.9z"/>
		<path class="st0" d="M713.8,537.5v-14.6h6.4v14.5c0,2.7,1.3,4.2,4,4.2c2.7,0,4-1.5,4-4.2v-14.5h6.4v14.6c0,6.4-4.4,9.6-10.3,9.6
			C718.2,547,713.8,543.9,713.8,537.5z"/>
		<path class="st0" d="M738.5,531.6h6.4v15.1h-6.4V531.6z"/>
		<path class="st0" d="M760.4,547c-6.7,0-12.4-5-12.4-12.2s5.7-12.2,12-12.2c5.1,0,8.3,2.2,10.3,5.1l-4.8,3.3
			c-0.9-1.4-2.4-2.8-5.4-2.8c-3.5,0-5.6,2.9-5.6,6.7c0,3.7,2.2,6.7,5.8,6.7c3.1,0,4.6-1.4,5.6-3.3l4.9,3.2
			C768.5,545.3,765.2,547,760.4,547z"/>
		<path class="st0" d="M769.9,522.9h7l4.7,8.7l4.7-8.7h6.7l-8.3,14.4v9.4h-6.4v-9.2L769.9,522.9z"/>
		<path class="st1" d="M800.9,534.8v11.9h-6v-24.1c0-0.2,0.1-0.4,0.5-0.1l14.9,12.3v-12.2h6V547c0,0.3-0.1,0.4-0.5,0.1L800.9,534.8z
			"/>
		<path class="st1" d="M819.3,534.8c0-7.2,5.9-12.2,12.8-12.2s12.8,5,12.8,12.2S838.9,547,832,547S819.3,542,819.3,534.8z
			 M838.3,534.8c0-3.7-2.3-6.7-6.3-6.7c-4,0-6.3,2.9-6.3,6.7c0,3.7,2.3,6.7,6.3,6.7C836,541.5,838.3,538.5,838.3,534.8z"/>
		<path class="st1" d="M851.6,528.2h-6.3v-5.4h19v5.4H858v18.4h-6.4V528.2z"/>
		<path class="st1" d="M867.1,522.9h16.7v5.4h-10.3v3.9h8.6v5.1h-8.6v4.1h10.8v5.4h-17.2V522.9z"/>
		<path class="st1" d="M885.5,542.6l4.6-3.5c1.2,1.4,2.6,2.6,5,2.6c1.9,0,3-0.6,3-1.9c0-1-0.8-1.5-2.3-2l-2.8-0.9
			c-3.5-1.2-5.9-3.3-5.9-7.2c0-4.7,3.9-7.1,8.1-7.1c4.2,0,6.7,1.5,8.1,3.2l-3.6,3.8c-1-1-2.2-1.7-4.1-1.7c-1.5,0-2.3,0.7-2.3,1.6
			c0,0.9,0.5,1.4,1.7,1.8l3.2,1c4.8,1.6,6.4,3.9,6.4,7.2c0,4.4-2.7,7.5-9,7.5C890,547,887,544.6,885.5,542.6z"/>
	</g>
	<circle class="st1" cx="741.7" cy="526.1" r="3.2"/>
	<circle class="st0" cx="832" cy="534.8" r="3.2"/>
</g>
</svg>
